<?xml version="1.0" encoding="UTF-8" standalone="no"?>
<!-- Created with Inkscape (http://www.inkscape.org/) -->

<svg
   version="1.1"
   id="svg18"
   width="222.69865"
   height="598.49335"
   viewBox="0 0 222.69866 598.49332"
   sodipodi:docname="balloon.svg"
   inkscape:version="1.2.1 (9c6d41e, 2022-07-14)"
   xmlns:inkscape="http://www.inkscape.org/namespaces/inkscape"
   xmlns:sodipodi="http://sodipodi.sourceforge.net/DTD/sodipodi-0.dtd"
   xmlns="http://www.w3.org/2000/svg"
   xmlns:svg="http://www.w3.org/2000/svg">
  <sodipodi:namedview
     id="namedview78"
     pagecolor="#ffffff"
     bordercolor="#000000"
     borderopacity="0.25"
     inkscape:showpageshadow="2"
     inkscape:pageopacity="0.0"
     inkscape:pagecheckerboard="0"
     inkscape:deskcolor="#d1d1d1"
     showgrid="false"
     inkscape:zoom="2.9761239"
     inkscape:cx="83.497869"
     inkscape:cy="55.441241"
     inkscape:window-width="2240"
     inkscape:window-height="1260"
     inkscape:window-x="0"
     inkscape:window-y="0"
     inkscape:window-maximized="0"
     inkscape:current-layer="svg18" />
  <defs
     id="defs22" />
  <path
     style="fill:#ffffff"
     d="M 12.432278,109.20244 C 24.864557,72.241617 43.008963,39.648888 43.008963,39.648888 L 74.929677,21.504481 108.19442,18.480414 116.93062,39.984895 81.985835,64.849452 54.769226,98.786211 38.640865,123.98678 Z"
     id="path245" />
  <g
     id="g26"
     transform="matrix(1.3333333,0,0,-1.3333333,-555.31732,832.57998)">
    <g
       id="g28"
       transform="scale(0.1)">
      <path
         d="m 5000,4213.62 c -282.38,0 -835.12,580.77 -835.12,1141.54 0,560.76 373.89,889.19 835.12,889.19 461.22,0 835.12,-328.43 835.12,-889.19 0,-560.77 -570.76,-1141.54 -835.12,-1141.54 m -100.42,1855.62 c -2.6,0 -5.24,-0.16 -7.9,-0.51 -300.56,-38.61 -537.34,-280.98 -567.37,-584.14 -3.48,-35.09 24.62,-65.35 59.88,-65.35 h 0.01 c 30.89,0 56.66,23.43 59.76,54.16 24.87,247.29 218.25,444.86 463.57,476.2 29.98,3.82 52.42,29.34 52.42,59.56 0,33.75 -27.58,60.08 -60.37,60.08"
         style="fill:#ff0000;fill-opacity:1;fill-rule:nonzero;stroke:none"
         id="path30" />
      <path
         d="m 5033.27,1755.65 c -8.63,0 -17.03,4.69 -21.45,12.93 -118.71,221.4 31.21,453.36 163.99,658.8 62.59,96.86 121.72,188.34 153.21,274.95 72.61,199.65 -15.74,355.8 -149.48,592.19 -48.19,85.18 -102.81,181.72 -156,292.4 -105.55,219.61 -99.58,376.23 -75.98,468.94 6.59,25.9 14.87,48.38 23.6,67.64 h -61.28 c -24.89,0 -45.06,20.18 -45.06,45.06 0,24.89 20.17,45.06 45.06,45.06 h 90.12 90.12 c 24.89,0 45.06,-20.17 45.06,-45.06 0,-24.88 -20.17,-45.06 -45.06,-45.06 h -65.32 c -11.38,-21.08 -23.12,-48.64 -31.51,-82.92 -20.71,-84.54 -24.75,-228.26 73.57,-432.84 52.5,-109.23 106.69,-205.03 154.51,-289.56 135.27,-239.08 232.99,-411.82 152.83,-632.28 -33.35,-91.7 -93.91,-185.41 -158.03,-284.61 -131.55,-203.55 -267.45,-413.82 -161.67,-610.56 5.94,-11.05 2,-24.84 -8.65,-31.47 -3.95,-2.45 -8.29,-3.61 -12.58,-3.61"
         style="fill:#810000;fill-opacity:1;fill-rule:nonzero;stroke:none"
         id="path32" />
    </g>
  </g>
</svg>
